<?xml version="1.0" encoding="UTF-8" standalone="no"?>
<svg
   xmlns:dc="http://purl.org/dc/elements/1.1/"
   xmlns:cc="http://creativecommons.org/ns#"
   xmlns:rdf="http://www.w3.org/1999/02/22-rdf-syntax-ns#"
   xmlns:svg="http://www.w3.org/2000/svg"
   xmlns="http://www.w3.org/2000/svg"
   xmlns:sodipodi="http://sodipodi.sourceforge.net/DTD/sodipodi-0.dtd"
   xmlns:inkscape="http://www.inkscape.org/namespaces/inkscape"
   width="48"
   height="48"
   viewBox="0 0 48 48"
   id="svg2"
   version="1.1"
   inkscape:version="0.91 r13725"
   sodipodi:docname="ic_forward_30_48px.svg">
  <metadata
     id="metadata10">
    <rdf:RDF>
      <cc:Work
         rdf:about="">
        <dc:format>image/svg+xml</dc:format>
        <dc:type
           rdf:resource="http://purl.org/dc/dcmitype/StillImage" />
      </cc:Work>
    </rdf:RDF>
  </metadata>
  <defs
     id="defs8" />
  <sodipodi:namedview
     pagecolor="#ffffff"
     bordercolor="#666666"
     borderopacity="1"
     objecttolerance="10"
     gridtolerance="10"
     guidetolerance="10"
     inkscape:pageopacity="0"
     inkscape:pageshadow="2"
     inkscape:window-width="1920"
     inkscape:window-height="1019"
     id="namedview6"
     showgrid="false"
     inkscape:zoom="6.9532167"
     inkscape:cx="0.37015691"
     inkscape:cy="25.331808"
     inkscape:window-x="0"
     inkscape:window-y="0"
     inkscape:window-maximized="1"
     inkscape:current-layer="svg2" />
  <g
     id="g3334"
     transform="translate(0.41379371,0.64972857)">
    <path
       inkscape:connector-curvature="0"
       d="m 34.938497,32.644778 c 0,1.195507 -0.07163,2.201725 -0.214904,3.038581 -0.143269,0.836855 -0.367127,1.514308 -0.653665,2.032362 -0.286539,0.518053 -0.644712,0.89663 -1.056611,1.135732 -0.420853,0.239101 -0.904387,0.358652 -1.459555,0.358652 -0.546214,0 -1.029748,-0.119551 -1.459555,-0.358652 -0.429807,-0.239102 -0.78798,-0.617679 -1.083473,-1.135732 -0.295492,-0.518054 -0.51935,-1.195507 -0.671575,-2.032362 -0.152223,-0.836856 -0.232812,-1.843074 -0.232812,-3.038581 l 0,-4.991243 c 0,-1.20547 0.07163,-2.211689 0.223858,-3.028619 0.152223,-0.816929 0.376082,-1.474459 0.662621,-1.982549 0.295492,-0.508091 0.653665,-0.866742 1.074518,-1.085919 0.420854,-0.219177 0.904387,-0.328764 1.450601,-0.328764 0.546213,0 1.029747,0.109587 1.4506,0.328764 0.420854,0.219177 0.779026,0.587791 1.074519,1.085919 0.295493,0.50809 0.510397,1.16562 0.662621,1.982549 0.152223,0.81693 0.223857,1.833112 0.223857,3.028619 l 0,4.991243 z m 1.638641,-12.313725 c -0.608894,-0.806967 -1.343149,-1.384795 -2.19381,-1.743448 -0.859614,-0.358652 -1.808773,-0.537978 -2.865383,-0.537978 -1.038702,0 -1.98786,0.179326 -2.847475,0.537978 -0.859615,0.358653 -1.59387,0.936481 -2.19381,1.743448 -0.608894,0.806968 -1.074518,1.862999 -1.405829,3.158132 -0.33131,1.305095 -0.492488,2.889142 -0.492488,4.762104 l 0,3.81566 c 0,1.872962 0.170133,3.466971 0.501443,4.772067 0.340264,1.305095 0.814843,2.371089 1.423737,3.188019 0.617848,0.81693 1.352104,1.414683 2.202764,1.783298 0.859615,0.368615 1.808773,0.547941 2.847475,0.547941 1.047656,0 2.005768,-0.189288 2.85643,-0.547941 0.850661,-0.368615 1.575961,-0.956406 2.184855,-1.783298 0.599939,-0.81693 1.074519,-1.882924 1.405828,-3.188019 0.33131,-1.305096 0.492488,-2.899105 0.492488,-4.772067 l 0,-3.81566 c 0,-1.872962 -0.170132,-3.457009 -0.492488,-4.762104 -0.340263,-1.295133 -0.814843,-2.351164 -1.423737,-3.158132 z M 22.010535,32.045335 c -0.286539,-0.478204 -0.653667,-0.916556 -1.101382,-1.305097 -0.456671,-0.388539 -1.002885,-0.697379 -1.656551,-0.946442 0.546214,-0.26899 1.020794,-0.607716 1.432693,-0.996257 0.411899,-0.398502 0.752162,-0.816929 1.020792,-1.265245 0.26863,-0.448315 0.47458,-0.916555 0.617849,-1.40472 0.134315,-0.488166 0.205949,-0.966369 0.205949,-1.444571 0,-1.105844 -0.170131,-2.072213 -0.492488,-2.919031 -0.33131,-0.836855 -0.796934,-1.544197 -1.396874,-2.1021 -0.59994,-0.557903 -1.316286,-0.986293 -2.157992,-1.275208 -0.841706,-0.288914 -1.764002,-0.42839 -2.775841,-0.42839 -0.984976,0 -1.889363,0.159401 -2.722114,0.488166 -0.832752,0.328764 -1.549098,0.777079 -2.149038,1.354908 -0.59994,0.577828 -1.0655647,1.265245 -1.4058287,2.052287 C 9.0894449,22.640677 8.928267,23.50742 8.928267,24.433938 l 3.545912,0 c 0,-0.50809 0.08059,-0.966368 0.250721,-1.374833 0.170132,-0.408466 0.39399,-0.757155 0.689483,-1.036106 0.295493,-0.288914 0.635757,-0.508091 1.038701,-0.667491 0.402945,-0.159402 0.832753,-0.239103 1.298378,-0.239103 1.092427,0 1.898317,0.30884 2.435576,0.936482 0.528305,0.62764 0.796935,1.494383 0.796935,2.620152 0,0.537979 -0.07163,1.036107 -0.214904,1.474459 -0.143269,0.448316 -0.367128,0.826893 -0.671574,1.135733 -0.304447,0.318802 -0.680529,0.557903 -1.128245,0.737229 -0.447716,0.179327 -0.976022,0.26899 -1.59387,0.26899 l -2.104266,0 0,3.118281 2.104266,0 c 0.59994,0 1.146154,0.0797 1.629688,0.229138 0.483532,0.149439 0.895431,0.38854 1.235696,0.707342 0.340264,0.318802 0.59994,0.727267 0.78798,1.215433 0.188041,0.488165 0.277584,1.065994 0.277584,1.743447 0,1.235358 -0.313401,2.181801 -0.949158,2.829367 -0.635757,0.647567 -1.495372,0.976332 -2.596754,0.976332 -0.528305,0 -1.002884,-0.0797 -1.432691,-0.249064 -0.429808,-0.169363 -0.796936,-0.408466 -1.092428,-0.717304 -0.304447,-0.30884 -0.537259,-0.677455 -0.698438,-1.115807 -0.170132,-0.428391 -0.25072,-0.906593 -0.25072,-1.43461 l -3.5727757,0 c 0,1.095882 0.1880408,2.062251 0.5730767,2.889143 0.3760816,0.836855 0.886478,1.534235 1.531189,2.092138 0.644711,0.557903 1.387921,0.976331 2.229626,1.255282 0.841707,0.278952 1.728185,0.418428 2.650481,0.418428 1.011838,0 1.952043,-0.159401 2.829566,-0.458277 0.868569,-0.30884 1.629687,-0.757155 2.265444,-1.344947 0.635757,-0.58779 1.137199,-1.315057 1.495373,-2.1818 0.358173,-0.866742 0.537259,-1.853036 0.537259,-2.958881 0,-0.58779 -0.06269,-1.155657 -0.196996,-1.703598 -0.134315,-0.557903 -0.340263,-1.075956 -0.617847,-1.554158 z"
       id="path4" />
    <path
       id="XMLID_374_"
       d="m 39.215056,13.060475 -0.01551,-0.04688 C 38.349659,10.553998 37.31226,8.1564171 36.096652,5.8489791 l -0.475671,-0.90359 C 35.273066,4.160764 34.167665,4.136323 33.781773,4.9036191 l -1.145128,2.276939 c -0.02494,-0.01255 -0.05304,-0.01886 -0.08424,-0.03455 -0.05304,-0.01886 -0.0967,-0.04082 -0.177839,-0.06599 -0.146649,-0.05031 -0.312016,-0.110026 -0.483622,-0.172882 -0.171604,-0.06286 -0.365061,-0.128886 -0.558519,-0.194916 -0.190354,-0.05665 -0.386949,-0.116447 -0.599158,-0.176275 -0.102985,-0.02835 -0.212207,-0.05983 -0.327669,-0.09445 -0.109222,-0.03148 -0.227821,-0.05986 -0.346419,-0.08825 -0.237197,-0.05677 -0.480633,-0.116665 -0.739682,-0.176603 -0.255948,-0.05056 -0.52751,-0.101161 -0.808448,-0.148659 -0.280937,-0.0475 -0.574387,-0.08566 -0.874076,-0.126953 -1.208165,-0.14647 -2.575788,-0.208998 -4.050007,-0.09065 -1.471083,0.112104 -3.048797,0.420694 -4.636362,0.935362 -0.790682,0.26671 -1.59395,0.573986 -2.372409,0.956267 -0.39702,0.183315 -0.778497,0.397894 -1.172452,0.606198 -0.193858,0.105721 -0.381515,0.230193 -0.569135,0.339051 l -0.290824,0.174195 -0.281484,0.186708 c -1.504353,0.9864 -2.903093,2.2134989 -4.102432,3.6346759 -0.604338,0.70433 -1.146368,1.471262 -1.64473,2.260157 -0.125381,0.202689 -0.247633,0.399134 -0.373014,0.601822 -0.04078,0.06546 -0.07836,0.124729 -0.112869,0.193348 -0.448639,0.892061 -0.0858,1.973384 0.800019,2.418885 0.748583,0.376482 1.626528,0.184921 2.15568,-0.416534 l 0,0 c 0.0063,-0.01248 0.02196,-0.02804 0.03757,-0.04364 0.01568,-0.01556 0.02509,-0.03428 0.03757,-0.04364 0.147163,-0.168279 0.428976,-0.495511 0.49475,-0.579672 0.479138,-0.579714 0.980053,-1.125025 1.524563,-1.61715 1.082782,-0.987384 2.27756,-1.793388 3.515568,-2.390065 l 0.228221,-0.111886 0.231325,-0.10251 c 0.15942,-0.06833 0.306364,-0.142932 0.462648,-0.205022 0.315667,-0.114804 0.621995,-0.242122 0.934488,-0.335075 0.615683,-0.214032 1.23746,-0.36247 1.843549,-0.479718 1.21528,-0.225122 2.370878,-0.300491 3.426226,-0.238694 1.058486,0.05556 2.00742,0.220162 2.82196,0.434413 0.205969,0.05669 0.399463,0.107108 0.58982,0.163762 0.187218,0.06289 0.368198,0.122648 0.536702,0.176129 0.171606,0.06285 0.333834,0.128812 0.486725,0.182257 0.078,0.0314 0.15289,0.05344 0.227749,0.09109 0.07175,0.02827 0.140377,0.06278 0.212134,0.09106 0.13414,0.05965 0.26828,0.119292 0.389942,0.172663 0.112288,0.05647 0.205861,0.103533 0.299433,0.150593 0.09358,0.04706 0.174671,0.08784 0.249529,0.125492 0.01871,0.0094 0.04367,0.02196 0.06862,0.03451 l -1.148267,2.283185 c -0.385892,0.767298 0.295968,1.633895 1.130171,1.451602 l 0.974659,-0.150733 c 2.602201,-0.403001 5.170511,-1.002815 7.683079,-1.802617 0.862331,-0.191596 1.320381,-1.102371 0.969362,-1.896373 z"
       class="st0"
       inkscape:connector-curvature="0" />
  </g>
</svg>
