<?xml version="1.0" encoding="UTF-8" standalone="no"?>
<svg
   xmlns:dc="http://purl.org/dc/elements/1.1/"
   xmlns:cc="http://creativecommons.org/ns#"
   xmlns:rdf="http://www.w3.org/1999/02/22-rdf-syntax-ns#"
   xmlns:svg="http://www.w3.org/2000/svg"
   xmlns="http://www.w3.org/2000/svg"
   xmlns:sodipodi="http://sodipodi.sourceforge.net/DTD/sodipodi-0.dtd"
   xmlns:inkscape="http://www.inkscape.org/namespaces/inkscape"
   width="48"
   height="48"
   viewBox="0 0 48 48"
   id="svg2"
   version="1.1"
   inkscape:version="0.91 r13725"
   sodipodi:docname="ic_forward_5_48px.svg">
  <metadata
     id="metadata10">
    <rdf:RDF>
      <cc:Work
         rdf:about="">
        <dc:format>image/svg+xml</dc:format>
        <dc:type
           rdf:resource="http://purl.org/dc/dcmitype/StillImage" />
      </cc:Work>
    </rdf:RDF>
  </metadata>
  <defs
     id="defs8" />
  <sodipodi:namedview
     pagecolor="#ffffff"
     bordercolor="#666666"
     borderopacity="1"
     objecttolerance="10"
     gridtolerance="10"
     guidetolerance="10"
     inkscape:pageopacity="0"
     inkscape:pageshadow="2"
     inkscape:window-width="1920"
     inkscape:window-height="1019"
     id="namedview6"
     showgrid="false"
     inkscape:zoom="4.9166667"
     inkscape:cx="6.7354609"
     inkscape:cy="24.926353"
     inkscape:window-x="0"
     inkscape:window-y="0"
     inkscape:window-maximized="1"
     inkscape:current-layer="svg2" />
  <g
     id="g3334"
     transform="translate(-0.20339055,1.5291482)">
    <path
       inkscape:connector-curvature="0"
       id="path4"
       d="m 16.211194,29.35288 1.339655,-12.2 12.86069,0 0,3.972093 -9.109655,0 -0.535862,5.106977 c 0.267931,0 0.267931,-0.283721 0.535862,-0.283721 0.267931,0 0.535862,-0.283721 0.803793,-0.283721 0.267931,0 0.535862,-0.283721 1.071724,-0.283721 l 1.071724,0 c 1.071724,0 2.143448,0.283721 2.947241,0.567442 0.803794,0.283721 1.607587,0.851163 2.143449,1.702325 0.535862,0.851163 1.071724,1.418605 1.339655,2.553489 0.267931,1.134884 0.535862,2.269767 0.535862,3.404651 0,1.134884 -0.267931,1.986046 -0.535862,3.12093 -0.267931,1.134884 -0.803793,1.702326 -1.339655,2.553489 -0.535862,0.851162 -1.339655,1.418604 -2.41138,1.702325 -1.071724,0.283721 -2.143448,0.567442 -3.483103,0.567442 -1.071724,0 -1.875517,-0.283721 -2.947241,-0.567442 -1.071725,-0.283721 -1.607587,-0.851163 -2.41138,-1.418605 -0.803793,-0.567441 -1.339655,-1.418604 -1.607586,-2.269767 -0.267931,-0.851163 -0.803793,-1.986046 -0.803793,-3.12093 l 4.554828,0 c 0,1.134884 0.535862,1.702325 1.071724,2.269767 0.535862,0.567442 1.339655,0.851163 2.143448,0.851163 0.535862,0 1.071724,0 1.339655,-0.283721 0.267931,-0.283721 0.803793,-0.567442 1.071724,-0.851163 0.267931,-0.283721 0.535862,-0.851162 0.535862,-1.418604 0,-0.567442 0.267931,-1.134884 0.267931,-1.702326 0,-0.567442 0,-1.134884 -0.267931,-1.702325 C 26.124642,30.771485 26.124642,30.487764 25.58878,29.920322 25.052918,29.35288 24.784987,29.35288 24.517056,29.069159 24.249125,28.785438 23.445332,28.785438 22.90947,28.785438 l -1.071724,0 c 0,0 -0.535862,0.283721 -0.803793,0.283721 -0.267931,0 -0.535862,0.567442 -0.803793,0.851163 l -0.535862,0.567442 -3.483104,-1.134884 z" />
    <path
       id="XMLID_374_"
       d="M 39.83224,12.10703 39.81673,12.06015 C 38.966843,9.6005525 37.929444,7.2029714 36.713836,4.8955339 L 36.238165,3.9919441 C 35.89025,3.2073187 34.784849,3.1828778 34.398957,3.9501735 l -1.145128,2.2769389 c -0.02494,-0.01255 -0.05304,-0.01886 -0.08424,-0.03455 -0.05304,-0.01886 -0.0967,-0.04082 -0.177839,-0.06599 -0.146649,-0.05031 -0.312016,-0.110026 -0.483622,-0.172882 C 32.336524,5.890834 32.143067,5.8248033 31.949609,5.7587733 31.759255,5.702119 31.56266,5.6423271 31.350451,5.5824988 31.247466,5.5541536 31.138244,5.5226703 31.022782,5.4880506 30.91356,5.4565681 30.794961,5.4281853 30.676363,5.3998036 30.439166,5.343039 30.19573,5.2831386 29.936681,5.2232006 29.680733,5.1726384 29.409171,5.1220398 29.128233,5.0745417 28.847296,5.0270439 28.553846,4.9888852 28.254157,4.947589 27.045992,4.8011187 25.678369,4.7385907 24.20415,4.8569335 22.733067,4.9690377 21.155353,5.2776274 19.567788,5.792296 c -0.790682,0.2667094 -1.59395,0.5739854 -2.372409,0.9562664 -0.39702,0.183315 -0.778497,0.397894 -1.172452,0.606198 -0.193858,0.105721 -0.381515,0.230193 -0.569135,0.339052 l -0.290824,0.174195 -0.281484,0.186707 c -1.504353,0.986401 -2.903093,2.2134986 -4.102432,3.6346766 -0.604337,0.70433 -1.1463672,1.471262 -1.6447292,2.260157 -0.125381,0.202689 -0.2476328,0.399134 -0.3730143,0.601822 -0.04078,0.06546 -0.07836,0.124729 -0.112869,0.193348 -0.448639,0.892061 -0.0858,1.973384 0.8000193,2.418885 0.7485832,0.376482 1.6265272,0.184921 2.1556792,-0.416534 l 0,0 c 0.0063,-0.01248 0.02196,-0.02804 0.03757,-0.04364 0.01568,-0.01556 0.02509,-0.03428 0.03757,-0.04364 0.147163,-0.168279 0.428976,-0.495511 0.49475,-0.579672 0.479138,-0.579714 0.980053,-1.125025 1.524563,-1.61715 1.082782,-0.987384 2.27756,-1.793388 3.515568,-2.390065 l 0.228221,-0.111886 0.231325,-0.10251 c 0.15942,-0.06833 0.306364,-0.142932 0.462648,-0.205022 0.315667,-0.114804 0.621995,-0.242122 0.934488,-0.335075 0.615683,-0.214032 1.23746,-0.36247 1.843549,-0.479718 1.21528,-0.225122 2.370878,-0.300492 3.426226,-0.238694 1.058486,0.05556 2.00742,0.220162 2.82196,0.434413 0.205969,0.05669 0.399463,0.107108 0.58982,0.163762 0.187218,0.06289 0.368198,0.122648 0.536702,0.176129 0.171606,0.06285 0.333834,0.128812 0.486725,0.182257 0.078,0.0314 0.15289,0.05344 0.227749,0.09109 0.07175,0.02827 0.140377,0.06278 0.212134,0.09106 0.13414,0.05965 0.26828,0.119292 0.389942,0.172663 0.112288,0.05647 0.205861,0.103533 0.299433,0.150593 0.09358,0.04706 0.174671,0.08784 0.249529,0.125492 0.01871,0.0094 0.04367,0.02196 0.06862,0.03451 l -1.148267,2.283185 c -0.385892,0.767298 0.295968,1.633895 1.130171,1.451602 l 0.974659,-0.150733 c 2.602201,-0.403001 5.170511,-1.002815 7.683079,-1.802617 0.862331,-0.191596 1.320381,-1.102371 0.969362,-1.896373 z"
       class="st0"
       inkscape:connector-curvature="0" />
  </g>
</svg>
