<?xml version="1.0" encoding="UTF-8" standalone="no"?>
<svg
   xmlns:dc="http://purl.org/dc/elements/1.1/"
   xmlns:cc="http://creativecommons.org/ns#"
   xmlns:rdf="http://www.w3.org/1999/02/22-rdf-syntax-ns#"
   xmlns:svg="http://www.w3.org/2000/svg"
   xmlns="http://www.w3.org/2000/svg"
   xmlns:sodipodi="http://sodipodi.sourceforge.net/DTD/sodipodi-0.dtd"
   xmlns:inkscape="http://www.inkscape.org/namespaces/inkscape"
   width="48"
   height="48"
   viewBox="0 0 48 48"
   id="svg2"
   version="1.1"
   inkscape:version="0.91 r13725"
   sodipodi:docname="ic_replay_10_48px.svg">
  <metadata
     id="metadata10">
    <rdf:RDF>
      <cc:Work
         rdf:about="">
        <dc:format>image/svg+xml</dc:format>
        <dc:type
           rdf:resource="http://purl.org/dc/dcmitype/StillImage" />
        <dc:title />
      </cc:Work>
    </rdf:RDF>
  </metadata>
  <defs
     id="defs8" />
  <sodipodi:namedview
     pagecolor="#ffffff"
     bordercolor="#666666"
     borderopacity="1"
     objecttolerance="10"
     gridtolerance="10"
     guidetolerance="10"
     inkscape:pageopacity="0"
     inkscape:pageshadow="2"
     inkscape:window-width="1920"
     inkscape:window-height="1019"
     id="namedview6"
     showgrid="false"
     inkscape:zoom="6.9532166"
     inkscape:cx="-15.248607"
     inkscape:cy="31.612373"
     inkscape:window-x="0"
     inkscape:window-y="0"
     inkscape:window-maximized="1"
     inkscape:current-layer="svg2" />
  <g
     id="g3334"
     transform="translate(0.72372296,0.17701488)">
    <path
       inkscape:connector-curvature="0"
       d="m 33.366907,33.306924 c 0,1.2 -0.08,2.21 -0.24,3.05 -0.16,0.84 -0.41,1.52 -0.73,2.04 -0.32,0.52 -0.72,0.9 -1.18,1.14 -0.47,0.24 -1.01,0.36 -1.63,0.36 -0.61,0 -1.15,-0.12 -1.63,-0.36 -0.48,-0.24 -0.88,-0.62 -1.21,-1.14 -0.33,-0.52 -0.58,-1.2 -0.75,-2.04 -0.17,-0.84 -0.26,-1.85 -0.26,-3.05 l 0,-5.01 c 0,-1.21 0.08,-2.22 0.25,-3.04 0.17,-0.82 0.42,-1.48 0.74,-1.99 0.33,-0.51 0.73,-0.87 1.2,-1.09 0.47,-0.22 1.01,-0.33 1.62,-0.33 0.61,0 1.15,0.11 1.62,0.33 0.47,0.22 0.87,0.59 1.2,1.09 0.33,0.51 0.57,1.17 0.74,1.99 0.17,0.82 0.25,1.84 0.25,3.04 l 0,5.01 z m 1.83,-12.36 c -0.68,-0.81 -1.5,-1.39 -2.45,-1.75 -0.96,-0.36 -2.02,-0.54 -3.2,-0.54 -1.16,0 -2.22,0.18 -3.18,0.54 -0.96,0.36 -1.78,0.94 -2.45,1.75 -0.68,0.81 -1.2,1.87 -1.57,3.17 -0.37,1.31 -0.55,2.9 -0.55,4.78 l 0,3.83 c 0,1.88 0.19,3.48 0.56,4.79 0.38,1.31 0.91,2.38 1.59,3.2 0.69,0.82 1.51,1.42 2.46,1.79 0.96,0.37 2.02,0.55 3.18,0.55 1.17,0 2.24,-0.19 3.19,-0.55 0.95,-0.37 1.76,-0.96 2.44,-1.79 0.67,-0.82 1.2,-1.89 1.57,-3.2 0.37,-1.31 0.55,-2.91 0.55,-4.79 l 0,-3.83 c 0,-1.88 -0.19,-3.47 -0.55,-4.78 -0.38,-1.3 -0.91,-2.36 -1.59,-3.17 z m -27.639999,1.34 0,3.37 5.999999,-2 0,19.2 4,0 0,-24 -0.51,0 -9.489999,3.43 z"
       id="path4" />
    <path
       id="XMLID_374_"
       d="m 7.6474277,13.307253 0.01551,-0.04688 c 0.849887,-2.459598 1.887286,-4.857179 3.1028943,-7.1646164 l 0.475671,-0.9035898 c 0.347915,-0.7846254 1.453316,-0.8090663 1.839208,-0.041771 l 1.145128,2.2769394 c 0.02494,-0.012547 0.05304,-0.018862 0.08424,-0.034548 0.05304,-0.018862 0.0967,-0.040823 0.177839,-0.065993 0.146649,-0.050308 0.312016,-0.1100262 0.483622,-0.172882 0.171604,-0.062856 0.365061,-0.1288866 0.558519,-0.1949166 0.190354,-0.056654 0.386949,-0.1164462 0.599158,-0.1762745 0.102985,-0.028345 0.212207,-0.059829 0.327669,-0.094448 0.109222,-0.031483 0.227821,-0.059865 0.346419,-0.088247 0.237197,-0.056765 0.480633,-0.116665 0.739682,-0.176603 0.255948,-0.050562 0.52751,-0.1011608 0.808448,-0.1486589 0.280937,-0.047498 0.574387,-0.085656 0.874076,-0.1269527 1.208165,-0.1464703 2.575788,-0.2089983 4.050007,-0.090656 1.471083,0.1121042 3.048797,0.4206939 4.636362,0.9353625 0.790682,0.2667094 1.59395,0.5739858 2.372409,0.9562666 0.39702,0.183315 0.778497,0.397894 1.172452,0.6061983 0.193858,0.1057208 0.381515,0.2301928 0.569135,0.3390511 l 0.290824,0.174195 0.281484,0.1867074 c 1.504353,0.9864006 2.903093,2.2134986 4.102431,3.6346766 0.604338,0.70433 1.146368,1.471262 1.64473,2.260157 0.125381,0.202689 0.247633,0.399134 0.373014,0.601822 0.04078,0.06546 0.07836,0.124729 0.112869,0.193348 0.448639,0.892061 0.0858,1.973384 -0.80002,2.418885 -0.748582,0.376482 -1.626526,0.184921 -2.155678,-0.416534 l 0,0 c -0.0063,-0.01248 -0.02196,-0.02804 -0.03757,-0.04364 -0.01568,-0.01556 -0.02509,-0.03428 -0.03757,-0.04364 -0.147163,-0.168279 -0.428976,-0.495511 -0.49475,-0.579672 -0.479138,-0.579714 -0.980053,-1.125025 -1.524563,-1.61715 -1.082782,-0.987384 -2.27756,-1.793388 -3.515568,-2.390065 l -0.228221,-0.111886 -0.231325,-0.10251 c -0.15942,-0.06833 -0.306364,-0.142932 -0.462648,-0.205022 -0.315667,-0.114804 -0.621995,-0.242122 -0.934488,-0.335075 -0.615683,-0.214032 -1.23746,-0.36247 -1.843549,-0.479718 -1.21528,-0.225122 -2.370878,-0.300492 -3.426226,-0.238694 -1.058486,0.05556 -2.00742,0.220162 -2.82196,0.434413 -0.205969,0.05669 -0.399463,0.107108 -0.58982,0.163762 -0.187218,0.06289 -0.368198,0.122648 -0.536702,0.176129 -0.171606,0.06285 -0.333834,0.128812 -0.486725,0.182257 -0.078,0.0314 -0.15289,0.05344 -0.227749,0.09109 -0.07175,0.02827 -0.140377,0.06278 -0.212134,0.09106 -0.13414,0.05965 -0.26828,0.119292 -0.389942,0.172663 -0.112288,0.05647 -0.205861,0.103533 -0.299433,0.150593 -0.09358,0.04706 -0.174671,0.08784 -0.249529,0.125492 -0.01871,0.0094 -0.04367,0.02196 -0.06862,0.03451 l 1.148267,2.283185 c 0.385892,0.767298 -0.295968,1.633895 -1.130171,1.451602 L 16.299875,17.006243 C 13.697674,16.603242 11.129364,16.003428 8.6167957,15.203626 7.7544647,15.01203 7.2964147,14.101255 7.6474337,13.307253 Z"
       class="st0"
       inkscape:connector-curvature="0" />
  </g>
</svg>
