<?xml version="1.0" encoding="UTF-8" standalone="no"?>
<svg
   xmlns:dc="http://purl.org/dc/elements/1.1/"
   xmlns:cc="http://creativecommons.org/ns#"
   xmlns:rdf="http://www.w3.org/1999/02/22-rdf-syntax-ns#"
   xmlns:svg="http://www.w3.org/2000/svg"
   xmlns="http://www.w3.org/2000/svg"
   xmlns:sodipodi="http://sodipodi.sourceforge.net/DTD/sodipodi-0.dtd"
   xmlns:inkscape="http://www.inkscape.org/namespaces/inkscape"
   width="48"
   height="48"
   viewBox="0 0 48 48"
   id="svg2"
   version="1.1"
   inkscape:version="0.91 r13725"
   sodipodi:docname="ic_replay_5_48px.svg">
  <metadata
     id="metadata10">
    <rdf:RDF>
      <cc:Work
         rdf:about="">
        <dc:format>image/svg+xml</dc:format>
        <dc:type
           rdf:resource="http://purl.org/dc/dcmitype/StillImage" />
        <dc:title></dc:title>
      </cc:Work>
    </rdf:RDF>
  </metadata>
  <defs
     id="defs8" />
  <sodipodi:namedview
     pagecolor="#ffffff"
     bordercolor="#666666"
     borderopacity="1"
     objecttolerance="10"
     gridtolerance="10"
     guidetolerance="10"
     inkscape:pageopacity="0"
     inkscape:pageshadow="2"
     inkscape:window-width="956"
     inkscape:window-height="1019"
     id="namedview6"
     showgrid="false"
     inkscape:zoom="8"
     inkscape:cx="25.630511"
     inkscape:cy="45.359646"
     inkscape:window-x="960"
     inkscape:window-y="0"
     inkscape:window-maximized="0"
     inkscape:current-layer="svg2" />
  <g
     id="g3334"
     transform="translate(-0.20339074,1.5291482)">
    <path
       inkscape:connector-curvature="0"
       id="path4"
       d="m 16.211194,29.35288 1.339655,-12.2 12.86069,0 0,3.972093 -9.109655,0 -0.535862,5.106977 c 0.267931,0 0.267931,-0.283721 0.535862,-0.283721 0.267931,0 0.535862,-0.283721 0.803793,-0.283721 0.267931,0 0.535862,-0.283721 1.071724,-0.283721 l 1.071724,0 c 1.071724,0 2.143448,0.283721 2.947241,0.567442 0.803794,0.283721 1.607587,0.851163 2.143449,1.702325 0.535862,0.851163 1.071724,1.418605 1.339655,2.553489 0.267931,1.134884 0.535862,2.269767 0.535862,3.404651 0,1.134884 -0.267931,1.986046 -0.535862,3.12093 -0.267931,1.134884 -0.803793,1.702326 -1.339655,2.553489 -0.535862,0.851162 -1.339655,1.418604 -2.41138,1.702325 -1.071724,0.283721 -2.143448,0.567442 -3.483103,0.567442 -1.071724,0 -1.875517,-0.283721 -2.947241,-0.567442 -1.071725,-0.283721 -1.607587,-0.851163 -2.41138,-1.418605 -0.803793,-0.567441 -1.339655,-1.418604 -1.607586,-2.269767 -0.267931,-0.851163 -0.803793,-1.986046 -0.803793,-3.12093 l 4.554828,0 c 0,1.134884 0.535862,1.702325 1.071724,2.269767 0.535862,0.567442 1.339655,0.851163 2.143448,0.851163 0.535862,0 1.071724,0 1.339655,-0.283721 0.267931,-0.283721 0.803793,-0.567442 1.071724,-0.851163 0.267931,-0.283721 0.535862,-0.851162 0.535862,-1.418604 0,-0.567442 0.267931,-1.134884 0.267931,-1.702326 0,-0.567442 0,-1.134884 -0.267931,-1.702325 C 26.124642,30.771485 26.124642,30.487764 25.58878,29.920322 25.052918,29.35288 24.784987,29.35288 24.517056,29.069159 24.249125,28.785438 23.445332,28.785438 22.90947,28.785438 l -1.071724,0 c 0,0 -0.535862,0.283721 -0.803793,0.283721 -0.267931,0 -0.535862,0.567442 -0.803793,0.851163 l -0.535862,0.567442 -3.483104,-1.134884 z" />
    <path
       id="XMLID_374_"
       d="m 8.5745411,12.10703 0.01551,-0.04688 C 9.4399381,9.6005525 10.477337,7.2029714 11.692945,4.8955339 l 0.475671,-0.9035898 c 0.347915,-0.7846254 1.453316,-0.8090663 1.839208,-0.041771 l 1.145128,2.2769389 c 0.02494,-0.01255 0.05304,-0.01886 0.08424,-0.03455 0.05304,-0.01886 0.0967,-0.04082 0.177839,-0.06599 0.146649,-0.05031 0.312016,-0.110026 0.483622,-0.172882 0.171604,-0.062856 0.365061,-0.1288871 0.558519,-0.1949171 0.190354,-0.056654 0.386949,-0.1164462 0.599158,-0.1762745 0.102985,-0.028345 0.212207,-0.059829 0.327669,-0.094448 0.109222,-0.031483 0.227821,-0.059865 0.346419,-0.088247 0.237197,-0.056765 0.480633,-0.116665 0.739682,-0.176603 0.255948,-0.050562 0.52751,-0.1011608 0.808448,-0.1486589 0.280937,-0.047498 0.574387,-0.085656 0.874076,-0.1269527 1.208165,-0.1464703 2.575788,-0.2089983 4.050007,-0.090655 1.471083,0.1121042 3.048797,0.4206939 4.636362,0.9353625 0.790682,0.2667094 1.59395,0.5739854 2.372409,0.9562664 0.39702,0.183315 0.778497,0.397894 1.172452,0.606198 0.193858,0.105721 0.381515,0.230193 0.569135,0.339052 l 0.290824,0.174195 0.281484,0.186707 c 1.504353,0.986401 2.903093,2.2134983 4.102432,3.6346763 0.604337,0.70433 1.146367,1.471262 1.644729,2.260157 0.125381,0.202689 0.247633,0.399134 0.373015,0.601822 0.04078,0.06546 0.07836,0.124729 0.112869,0.193348 0.448639,0.892061 0.0858,1.973384 -0.80002,2.418885 -0.748583,0.376482 -1.626527,0.184921 -2.155679,-0.416534 l 0,0 c -0.0063,-0.01248 -0.02196,-0.02804 -0.03757,-0.04364 -0.01568,-0.01556 -0.02509,-0.03428 -0.03757,-0.04364 C 36.58034,16.49151 36.298527,16.164278 36.232753,16.080117 35.753615,15.500403 35.2527,14.955092 34.70819,14.462967 33.625408,13.475583 32.43063,12.669579 31.192622,12.072902 l -0.228221,-0.111886 -0.231325,-0.10251 c -0.15942,-0.06833 -0.306364,-0.142932 -0.462648,-0.205022 -0.315667,-0.114804 -0.621995,-0.242122 -0.934488,-0.335075 -0.615683,-0.214032 -1.23746,-0.36247 -1.843549,-0.479718 -1.21528,-0.225122 -2.370878,-0.300492 -3.426226,-0.238694 -1.058486,0.05556 -2.00742,0.220162 -2.82196,0.434413 -0.205969,0.05669 -0.399463,0.107108 -0.58982,0.163762 -0.187218,0.06289 -0.368198,0.122648 -0.536702,0.176129 -0.171606,0.06285 -0.333834,0.128812 -0.486725,0.182257 -0.078,0.0314 -0.15289,0.05344 -0.227749,0.09109 -0.07175,0.02827 -0.140377,0.06278 -0.212134,0.09106 -0.13414,0.05965 -0.26828,0.119292 -0.389942,0.172663 -0.112288,0.05647 -0.205861,0.103533 -0.299433,0.150593 -0.09358,0.04706 -0.174671,0.08784 -0.249529,0.125492 -0.01871,0.0094 -0.04367,0.02196 -0.06862,0.03451 l 1.148267,2.283185 c 0.385892,0.767298 -0.295968,1.633895 -1.130171,1.451602 L 17.226988,15.80602 C 14.624787,15.403019 12.056477,14.803205 9.5439091,14.003403 8.6815781,13.811807 8.2235281,12.901032 8.5745471,12.10703 Z"
       class="st0"
       inkscape:connector-curvature="0" />
  </g>
</svg>
