<?xml version="1.0" encoding="UTF-8" standalone="no"?>
<svg
   xmlns:dc="http://purl.org/dc/elements/1.1/"
   xmlns:cc="http://creativecommons.org/ns#"
   xmlns:rdf="http://www.w3.org/1999/02/22-rdf-syntax-ns#"
   xmlns:svg="http://www.w3.org/2000/svg"
   xmlns="http://www.w3.org/2000/svg"
   xmlns:sodipodi="http://sodipodi.sourceforge.net/DTD/sodipodi-0.dtd"
   xmlns:inkscape="http://www.inkscape.org/namespaces/inkscape"
   width="48"
   height="48"
   viewBox="0 0 48 48"
   version="1.1"
   id="svg2"
   inkscape:version="0.91 r13725"
   sodipodi:docname="plyr-restart.svg">
  <metadata
     id="metadata12">
    <rdf:RDF>
      <cc:Work
         rdf:about="">
        <dc:format>image/svg+xml</dc:format>
        <dc:type
           rdf:resource="http://purl.org/dc/dcmitype/StillImage" />
        <dc:title />
      </cc:Work>
    </rdf:RDF>
  </metadata>
  <defs
     id="defs10" />
  <sodipodi:namedview
     pagecolor="#ffffff"
     bordercolor="#666666"
     borderopacity="1"
     objecttolerance="10"
     gridtolerance="10"
     guidetolerance="10"
     inkscape:pageopacity="0"
     inkscape:pageshadow="2"
     inkscape:window-width="956"
     inkscape:window-height="1015"
     id="namedview8"
     showgrid="false"
     inkscape:zoom="5.6568543"
     inkscape:cx="27.528059"
     inkscape:cy="33.142468"
     inkscape:window-x="0"
     inkscape:window-y="0"
     inkscape:window-maximized="0"
     inkscape:current-layer="svg2" />
  <g
     id="g4250">
    <path
       id="path6"
       d="M 19.232422 7.1992188 C 16.032418 7.9992197 13.099222 9.599997 10.699219 12 C 3.4992097 19.200009 3.4992098 30.933715 10.699219 38.400391 C 14.16589 41.867062 18.967572 43.732422 23.767578 43.732422 C 28.834251 43.732422 33.367313 41.867062 36.833984 38.400391 C 43.981184 31.253191 44.024776 19.643493 36.982422 12.169922 L 33.427734 15.800781 C 38.429458 20.875199 38.412149 29.355429 33.367188 34.400391 C 30.967185 37.067061 27.499874 38.400391 24.033203 38.400391 C 20.566532 38.400391 17.099222 37.067061 14.699219 34.400391 C 9.6325457 29.333718 9.6325457 20.799095 14.699219 15.732422 C 16.299221 14.13242 18.433981 12.800912 20.833984 12.267578 L 19.232422 7.1992188 z " />
    <path
       d="m 26.685817,6.6572337 2.360051,11.4600293 c 0.15867,0.808873 1.10936,1.086365 1.632039,0.552622 l 9.146889,-9.340496 c 0.52268,-0.5337429 0.22534,-1.4784119 -0.586679,-1.6201078 L 27.731176,5.5897485 c -0.608015,-0.072618 -1.130694,0.461125 -1.045359,1.0674852 l 0,0 z"
       id="path6-6-2"
       inkscape:connector-curvature="0"
       style="fill:#000000;fill-opacity:1" />
  </g>
</svg>
