<?xml version="1.0" encoding="UTF-8" standalone="no"?>
<svg
   xmlns:dc="http://purl.org/dc/elements/1.1/"
   xmlns:cc="http://creativecommons.org/ns#"
   xmlns:rdf="http://www.w3.org/1999/02/22-rdf-syntax-ns#"
   xmlns:svg="http://www.w3.org/2000/svg"
   xmlns="http://www.w3.org/2000/svg"
   xmlns:sodipodi="http://sodipodi.sourceforge.net/DTD/sodipodi-0.dtd"
   xmlns:inkscape="http://www.inkscape.org/namespaces/inkscape"
   width="48"
   height="48"
   viewBox="0 0 48 48"
   version="1.1"
   id="svg2"
   inkscape:version="0.91 r13725"
   sodipodi:docname="plyr-pause.svg">
  <metadata
     id="metadata14">
    <rdf:RDF>
      <cc:Work
         rdf:about="">
        <dc:format>image/svg+xml</dc:format>
        <dc:type
           rdf:resource="http://purl.org/dc/dcmitype/StillImage" />
        <dc:title />
      </cc:Work>
    </rdf:RDF>
  </metadata>
  <defs
     id="defs12" />
  <sodipodi:namedview
     pagecolor="#ffffff"
     bordercolor="#666666"
     borderopacity="1"
     objecttolerance="10"
     gridtolerance="10"
     guidetolerance="10"
     inkscape:pageopacity="0"
     inkscape:pageshadow="2"
     inkscape:window-width="1920"
     inkscape:window-height="1019"
     id="namedview10"
     showgrid="false"
     inkscape:zoom="6.5555556"
     inkscape:cx="-24.86608"
     inkscape:cy="43.976656"
     inkscape:window-x="0"
     inkscape:window-y="0"
     inkscape:window-maximized="1"
     inkscape:current-layer="svg2" />
  <g
     id="g4"
     transform="matrix(2.3333125,0,0,2.3333125,3.0001875,3.0001875)">
    <path
       d="M 6,1 3,1 C 2.4,1 2,1.4 2,2 l 0,14 c 0,0.6 0.4,1 1,1 l 3,0 c 0.6,0 1,-0.4 1,-1 L 7,2 C 7,1.4 6.6,1 6,1 l 0,0 z"
       id="path6"
       inkscape:connector-curvature="0" />
    <path
       d="m 12,1 c -0.6,0 -1,0.4 -1,1 l 0,14 c 0,0.6 0.4,1 1,1 l 3,0 c 0.6,0 1,-0.4 1,-1 L 16,2 C 16,1.4 15.6,1 15,1 l -3,0 z"
       id="path8"
       inkscape:connector-curvature="0" />
  </g>
</svg>
