<?xml version="1.0" encoding="UTF-8" standalone="no"?>
<svg
   xmlns:dc="http://purl.org/dc/elements/1.1/"
   xmlns:cc="http://creativecommons.org/ns#"
   xmlns:rdf="http://www.w3.org/1999/02/22-rdf-syntax-ns#"
   xmlns:svg="http://www.w3.org/2000/svg"
   xmlns="http://www.w3.org/2000/svg"
   xmlns:sodipodi="http://sodipodi.sourceforge.net/DTD/sodipodi-0.dtd"
   xmlns:inkscape="http://www.inkscape.org/namespaces/inkscape"
   width="48"
   height="48"
   viewBox="0 0 48 48"
   version="1.1"
   id="svg2"
   inkscape:version="0.91 r13725"
   sodipodi:docname="plyr-muted.svg">
  <metadata
     id="metadata14">
    <rdf:RDF>
      <cc:Work
         rdf:about="">
        <dc:format>image/svg+xml</dc:format>
        <dc:type
           rdf:resource="http://purl.org/dc/dcmitype/StillImage" />
        <dc:title></dc:title>
      </cc:Work>
    </rdf:RDF>
  </metadata>
  <defs
     id="defs12" />
  <sodipodi:namedview
     pagecolor="#ffffff"
     bordercolor="#666666"
     borderopacity="1"
     objecttolerance="10"
     gridtolerance="10"
     guidetolerance="10"
     inkscape:pageopacity="0"
     inkscape:pageshadow="2"
     inkscape:window-width="1920"
     inkscape:window-height="1019"
     id="namedview10"
     showgrid="false"
     inkscape:zoom="3.2777778"
     inkscape:cx="88.217323"
     inkscape:cy="-31.046984"
     inkscape:window-x="0"
     inkscape:window-y="0"
     inkscape:window-maximized="1"
     inkscape:current-layer="svg2" />
  <g
     id="g4"
     transform="scale(2.6666667,2.6666667)">
    <polygon
       points="11,6.9 13.1,9 11,11.1 12.4,12.5 14.5,10.4 16.6,12.5 18,11.1 15.9,9 18,6.9 16.6,5.5 14.5,7.6 12.4,5.5 "
       id="polygon6" />
    <path
       d="m 3.7857143,6.0082065 -3.07142859,0 C 0.28571429,6.0082065 0,6.3090128 0,6.7602222 l 0,4.5120948 c 0,0.451209 0.28571429,0.752015 0.71428571,0.752015 l 3.07142859,0 4.0714286,3.85766 C 8.3571429,16.182798 9,15.881992 9,15.28038 L 9,2.7521593 C 9,2.1505467 8.3571429,1.7745388 7.8571429,2.1505467 L 3.7857143,6.0082065 Z"
       id="path8"
       inkscape:connector-curvature="0" />
  </g>
</svg>
