<?xml version="1.0" encoding="UTF-8" standalone="no"?>
<svg
   xmlns:dc="http://purl.org/dc/elements/1.1/"
   xmlns:cc="http://creativecommons.org/ns#"
   xmlns:rdf="http://www.w3.org/1999/02/22-rdf-syntax-ns#"
   xmlns:svg="http://www.w3.org/2000/svg"
   xmlns="http://www.w3.org/2000/svg"
   xmlns:sodipodi="http://sodipodi.sourceforge.net/DTD/sodipodi-0.dtd"
   xmlns:inkscape="http://www.inkscape.org/namespaces/inkscape"
   width="48"
   height="48"
   viewBox="0 0 48 48"
   version="1.1"
   id="svg2"
   inkscape:version="0.91 r13725"
   sodipodi:docname="plyr-volume-mid.svg">
  <metadata
     id="metadata16">
    <rdf:RDF>
      <cc:Work
         rdf:about="">
        <dc:format>image/svg+xml</dc:format>
        <dc:type
           rdf:resource="http://purl.org/dc/dcmitype/StillImage" />
        <dc:title />
      </cc:Work>
    </rdf:RDF>
  </metadata>
  <defs
     id="defs14" />
  <sodipodi:namedview
     pagecolor="#ffffff"
     bordercolor="#666666"
     borderopacity="1"
     objecttolerance="10"
     gridtolerance="10"
     guidetolerance="10"
     inkscape:pageopacity="0"
     inkscape:pageshadow="2"
     inkscape:window-width="1920"
     inkscape:window-height="1019"
     id="namedview12"
     showgrid="false"
     inkscape:zoom="9.2709556"
     inkscape:cx="-3.0084798"
     inkscape:cy="20.194976"
     inkscape:window-x="0"
     inkscape:window-y="0"
     inkscape:window-maximized="1"
     inkscape:current-layer="svg2" />
  <g
     id="g3339">
    <path
       d="m 30.085267,14.085266 c -1.002576,1.002576 -1.002576,2.506439 0,3.509015 1.960477,1.960479 2.654187,3.888531 2.654187,6.40572 0,2.495692 -1.134979,5.112535 -2.654187,6.631746 -1.002576,1.002576 -1.002576,2.50644 0,3.509016 0.387171,0.387173 1.695192,0.699112 2.71424,0.417256 0.300355,-0.08307 0.575605,-0.217733 0.794776,-0.417256 3.134707,-2.853685 4.088693,-7.047987 4.089056,-10.140762 5.3e-5,-0.453453 -0.0069,-0.90625 -0.03091,-1.360686 -0.139173,-2.645049 -0.849728,-5.345619 -4.05816,-8.554049 -1.002576,-1.002577 -2.506437,-1.002577 -3.509013,0 z"
       id="path8"
       inkscape:connector-curvature="0" />
    <path
       d="m 10.095238,16.021884 -8.1904761,0 C 0.76190478,16.021884 0,16.824034 0,18.027259 l 0,12.032253 c 0,1.203224 0.76190478,2.005374 1.9047619,2.005374 l 8.1904761,0 10.857143,10.287093 C 22.285715,43.154129 24,42.351979 24,40.747681 L 24,7.3390916 C 24,5.7347913 22.285715,4.7321035 20.952381,5.7347913 L 10.095238,16.021884 Z"
       id="path10"
       inkscape:connector-curvature="0" />
  </g>
</svg>
