<?xml version="1.0" encoding="UTF-8" standalone="no"?>
<svg
   xmlns:dc="http://purl.org/dc/elements/1.1/"
   xmlns:cc="http://creativecommons.org/ns#"
   xmlns:rdf="http://www.w3.org/1999/02/22-rdf-syntax-ns#"
   xmlns:svg="http://www.w3.org/2000/svg"
   xmlns="http://www.w3.org/2000/svg"
   xmlns:sodipodi="http://sodipodi.sourceforge.net/DTD/sodipodi-0.dtd"
   xmlns:inkscape="http://www.inkscape.org/namespaces/inkscape"
   width="48"
   height="48"
   viewBox="0 0 48 48"
   version="1.1"
   id="svg2"
   inkscape:version="0.91 r13725"
   sodipodi:docname="plyr-volume-high.svg">
  <metadata
     id="metadata16">
    <rdf:RDF>
      <cc:Work
         rdf:about="">
        <dc:format>image/svg+xml</dc:format>
        <dc:type
           rdf:resource="http://purl.org/dc/dcmitype/StillImage" />
        <dc:title></dc:title>
      </cc:Work>
    </rdf:RDF>
  </metadata>
  <defs
     id="defs14" />
  <sodipodi:namedview
     pagecolor="#ffffff"
     bordercolor="#666666"
     borderopacity="1"
     objecttolerance="10"
     gridtolerance="10"
     guidetolerance="10"
     inkscape:pageopacity="0"
     inkscape:pageshadow="2"
     inkscape:window-width="1920"
     inkscape:window-height="1019"
     id="namedview12"
     showgrid="false"
     inkscape:zoom="9.2709556"
     inkscape:cx="15.328357"
     inkscape:cy="20.194976"
     inkscape:window-x="0"
     inkscape:window-y="0"
     inkscape:window-maximized="1"
     inkscape:current-layer="svg2" />
  <g
     id="g4"
     transform="scale(2.6666667,2.6666667)">
    <path
       d="m 15.6,3.3 c -0.4,-0.4 -1,-0.4 -1.4,0 -0.4,0.4 -0.4,1 0,1.4 1.2,1.2 1.8,2.7 1.8,4.3 0,1.6 -0.6,3.1 -1.8,4.3 -0.4,0.4 -0.4,1 0,1.4 0.2,0.2 0.5,0.3 0.7,0.3 0.3,0 0.5,-0.1 0.7,-0.3 C 17.1,13.2 18,11.2 18,9 18,6.8 17.1,4.8 15.6,3.3 l 0,0 z"
       id="path6"
       inkscape:connector-curvature="0" />
    <path
       d="m 11.281975,5.2819745 c -0.375966,0.375966 -0.375966,0.9399149 0,1.3158809 0.735179,0.7351794 0.99532,1.4581991 0.99532,2.4021448 0,0.9358844 -0.425617,1.9172008 -0.99532,2.4869048 -0.375966,0.375966 -0.375966,0.939915 0,1.315881 0.145189,0.14519 0.635697,0.262167 1.01784,0.156471 0.112633,-0.03115 0.215852,-0.08165 0.298041,-0.156471 1.175515,-1.070132 1.53326,-2.642995 1.533396,-3.8027858 2e-5,-0.1700447 -0.0026,-0.3398437 -0.01159,-0.5102573 -0.05219,-0.9918934 -0.318648,-2.0046068 -1.52181,-3.2077684 -0.375966,-0.375966 -0.939914,-0.375966 -1.31588,0 z"
       id="path8"
       inkscape:connector-curvature="0" />
    <path
       d="m 3.7857143,6.0082065 -3.07142859,0 C 0.28571429,6.0082065 0,6.3090128 0,6.7602222 l 0,4.5120948 c 0,0.451209 0.28571429,0.752015 0.71428571,0.752015 l 3.07142859,0 4.0714286,3.85766 C 8.3571429,16.182798 9,15.881992 9,15.28038 L 9,2.7521593 C 9,2.1505467 8.3571429,1.7745388 7.8571429,2.1505467 L 3.7857143,6.0082065 Z"
       id="path10"
       inkscape:connector-curvature="0" />
  </g>
</svg>
